# xmcd
#
# Track frame offsets: 
#        182
#        13232
#        27032
#        40107
#        52307
#        65357
#        78332
#        89882
#        104582
#        116507
#        130532
#        141557
#        152582
#        165432
#        179132
#        191507
#        204257
#        219257
#        234482
#        246332
#        256457
#        269207
#        280307
#        291282
#        305832
#
# Disc length: 4733 seconds
#
# Revision: 5
# Processed by: cddbd v1.5.2PL0 Copyright (c) Steve Scherf et al.
# Submitted via: ExactAudioCopy v1.3
#
DISCID=82127b19
DTITLE=Dinah Washington - The Dinah Washington Story CD1
DYEAR=1993
DGENRE=Jazz
TTITLE0=Evil Gal Blues
TTITLE1=Salty Papa Blues
TTITLE2=Embraceable You
TTITLE3=A Slick Chick (On The Mellow Side)
TTITLE4=Postman Blues
TTITLE5=That's Why A Woman Loves A Heel
TTITLE6=Walkin' And Talkin'
TTITLE7=Record Ban Blues
TTITLE8=(What Can I Say, Dear) After I Say I'm Sorry?
TTITLE9=I'll Wait (Master Take)
TTITLE10=Good Daddy Blues
TTITLE11=I Only Know
TTITLE12=Baby Get Lost
TTITLE13=It Isn't Fair
TTITLE14=I'll Never Be Free
TTITLE15=I Wanna Be Loved
TTITLE16=Time Out For Tears
TTITLE17=I Won't Cry Anymore
TTITLE18=New Blowtop Blues
TTITLE19=Wheel Of Fortune
TTITLE20=Trouble In Mind
TTITLE21=I Cried For You
TTITLE22=T.V. Is The Thing This Year
TTITLE23=Am I Blue?
TTITLE24=Blue Skies
EXTD=YEAR: 1993
EXTT0=
EXTT1=
EXTT2=
EXTT3=
EXTT4=
EXTT5=
EXTT6=
EXTT7=
EXTT8=
EXTT9=
EXTT10=
EXTT11=
EXTT12=
EXTT13=
EXTT14=
EXTT15=
EXTT16=
EXTT17=
EXTT18=
EXTT19=
EXTT20=
EXTT21=
EXTT22=
EXTT23=
EXTT24=
PLAYORDER=
